<?xml version="1.0" encoding="UTF-8" standalone="no"?>
<!-- Created with Inkscape (http://www.inkscape.org/) -->

<svg
   xmlns:dc="http://purl.org/dc/elements/1.1/"
   xmlns:cc="http://creativecommons.org/ns#"
   xmlns:rdf="http://www.w3.org/1999/02/22-rdf-syntax-ns#"
   xmlns:svg="http://www.w3.org/2000/svg"
   xmlns="http://www.w3.org/2000/svg"
   xmlns:sodipodi="http://sodipodi.sourceforge.net/DTD/sodipodi-0.dtd"
   xmlns:inkscape="http://www.inkscape.org/namespaces/inkscape"
   width="168.19089mm"
   height="33.490875mm"
   viewBox="0 0 168.19089 33.490875"
   version="1.1"
   id="svg8"
   inkscape:version="0.92.2 2405546, 2018-03-11"
   sodipodi:docname="logo.svg"
   inkscape:export-filename="/home/nat/Devel/NewsSiteTemplate---NewsHub/images/logo_home.png"
   inkscape:export-xdpi="37.91"
   inkscape:export-ydpi="37.91">
  <defs
     id="defs2" />
  <sodipodi:namedview
     id="base"
     pagecolor="#ffffff"
     bordercolor="#666666"
     borderopacity="1.0"
     inkscape:pageopacity="0.0"
     inkscape:pageshadow="2"
     inkscape:zoom="0.78310083"
     inkscape:cx="76.668138"
     inkscape:cy="50.414399"
     inkscape:document-units="mm"
     inkscape:current-layer="layer1"
     showgrid="false"
     inkscape:pagecheckerboard="true"
     fit-margin-top="0"
     fit-margin-left="0"
     fit-margin-right="0"
     fit-margin-bottom="0" />
  <metadata
     id="metadata5">
    <rdf:RDF>
      <cc:Work
         rdf:about="">
        <dc:format>image/svg+xml</dc:format>
        <dc:type
           rdf:resource="http://purl.org/dc/dcmitype/StillImage" />
        <dc:title />
      </cc:Work>
    </rdf:RDF>
  </metadata>
  <g
     inkscape:label="Layer 1"
     inkscape:groupmode="layer"
     id="layer1"
     transform="translate(-4.0045619,-34.004562)">
    <rect
       style="opacity:1;fill:#fcf6f2;fill-opacity:1;fill-rule:nonzero;stroke:none;stroke-width:0.50523573;stroke-linecap:square;stroke-linejoin:bevel;stroke-miterlimit:4;stroke-dasharray:none;stroke-opacity:1"
       id="rect823"
       width="97"
       height="32"
       x="5"
       y="35" />
    <rect
       style="opacity:1;fill:none;fill-opacity:1;fill-rule:nonzero;stroke:#cccccc;stroke-width:1;stroke-linecap:square;stroke-linejoin:miter;stroke-miterlimit:4;stroke-dasharray:none;stroke-opacity:1"
       id="rect883"
       width="167.19089"
       height="32.490875"
       x="4.5045619"
       y="34.504562" />
    <g
       aria-label="News"
       style="font-style:normal;font-variant:normal;font-weight:normal;font-stretch:normal;font-size:35.27777481px;line-height:1.25;font-family:serif;-inkscape-font-specification:serif;letter-spacing:0px;word-spacing:0px;fill:#000000;fill-opacity:1;stroke:none;stroke-width:0.26458332"
       id="text817">
      <path
         d="m 5.0000001,64.166664 v -1.8259 H 8.4623207 V 40.292154 H 5.0000001 V 38.449028 H 11.597357 L 27.014158,58.740639 V 40.292154 h -3.445095 v -1.843126 h 9.02615 v 1.843126 H 29.132892 V 64.666203 H 27.048609 L 10.581054,42.996554 v 19.34421 h 3.462321 v 1.8259 z"
         style="font-style:normal;font-variant:normal;font-weight:normal;font-stretch:normal;font-family:serif;-inkscape-font-specification:serif;stroke-width:0.26458332"
         id="path836"
         inkscape:connector-curvature="0" />
      <path
         d="M 53.265784,55.34722 H 39.605982 v 0.137804 q 0,3.703478 1.395263,5.59828 1.395264,1.877577 4.116889,1.877577 2.084283,0 3.410644,-1.085205 1.343587,-1.102431 1.877577,-3.255615 h 2.549371 q -0.757921,3.014458 -2.807753,4.5303 -2.032606,1.515842 -5.357123,1.515842 -4.013536,0 -6.459553,-2.635498 -2.428793,-2.652723 -2.428793,-7.027994 0,-4.34082 2.394342,-6.993543 2.394341,-2.652724 6.287298,-2.652724 4.15134,0 6.373426,2.566596 2.222087,2.549371 2.308214,7.42418 z m -3.737928,-1.8259 q -0.103353,-3.203939 -1.360813,-4.823133 -1.240234,-1.636421 -3.582899,-1.636421 -2.187635,0 -3.445095,1.636421 -1.25746,1.63642 -1.533067,4.823133 z"
         style="font-style:normal;font-variant:normal;font-weight:normal;font-stretch:normal;font-family:serif;-inkscape-font-specification:serif;stroke-width:0.26458332"
         id="path838"
         inkscape:connector-curvature="0" />
      <path
         d="m 71.955426,45.855983 4.68533,14.297145 4.134114,-12.454019 h -2.652723 v -1.843126 h 6.631808 v 1.843126 H 82.721349 L 77.278098,64.166664 H 74.6426 l -4.513074,-13.694253 -4.5303,13.694253 H 63.067081 L 57.641056,47.699109 h -2.049832 v -1.843126 h 8.285454 v 1.843126 h -2.962782 l 4.099663,12.454019 4.719781,-14.297145 z"
         style="font-style:normal;font-variant:normal;font-weight:normal;font-stretch:normal;font-family:serif;-inkscape-font-specification:serif;stroke-width:0.26458332"
         id="path840"
         inkscape:connector-curvature="0" />
      <path
         d="m 87.182744,63.150361 v -4.271918 h 1.825901 q 0.0689,2.049832 1.274685,3.066135 1.223009,1.016303 3.600125,1.016303 2.135959,0 3.255615,-0.792372 1.119655,-0.809597 1.119655,-2.342665 0,-1.205783 -0.826822,-1.946479 -0.809598,-0.740695 -3.445096,-1.584743 l -2.290988,-0.775147 q -2.35989,-0.757921 -3.42787,-1.894802 -1.050754,-1.136882 -1.050754,-2.89388 0,-2.51492 1.843126,-3.944634 1.843126,-1.429715 5.098741,-1.429715 1.44694,0 3.048909,0.378961 1.60197,0.37896 3.307289,1.10243 v 3.996311 h -1.825898 q -0.0689,-1.774224 -1.240234,-2.773302 -1.171332,-0.999078 -3.186713,-0.999078 -1.998155,0 -3.031684,0.706245 -1.016303,0.706245 -1.016303,2.118734 0,1.154106 0.775147,1.860351 0.775146,0.689019 3.100585,1.412489 l 2.51492,0.775146 q 2.601047,0.809598 3.73793,2.032607 1.1541,1.205783 1.1541,3.117811 0,2.601047 -1.99815,4.099663 -1.98093,1.481391 -5.477702,1.481391 -1.774224,0 -3.46232,-0.378961 -1.688097,-0.37896 -3.376194,-1.136881 z"
         style="font-style:normal;font-variant:normal;font-weight:normal;font-stretch:normal;font-family:serif;-inkscape-font-specification:serif;stroke-width:0.26458332"
         id="path842"
         inkscape:connector-curvature="0" />
    </g>
    <g
       aria-label="Hub"
       style="font-style:normal;font-variant:normal;font-weight:normal;font-stretch:normal;font-size:42.33333588px;line-height:1.25;font-family:serif;-inkscape-font-specification:serif;letter-spacing:0px;word-spacing:0px;fill:#ffffff;fill-opacity:1;stroke:none;stroke-width:0.26458332"
       id="text821">
      <path
         d="m 117.83463,50.575659 c 0.254,-0.804333 0.381,-1.354667 0.46566,-1.566333 0.254,-1.016001 0.508,-1.989667 0.762,-2.963334 0.254,-1.016 0.508,-2.032 0.80434,-3.048 0.0423,-0.169334 0.16933,-0.762 0.33866,-1.566334 l 1.651,-1.397 c -1.10066,-0.08467 -1.86266,-0.08467 -2.45533,-0.08467 -4.14867,0 -6.985,0.762 -9.271,2.455333 -2.286,1.693334 -3.302,3.640667 -3.302,6.307667 0,0.677334 0.0847,1.100667 0.33867,2.116667 l 3.175,-1.058333 c -0.381,-1.354667 -0.46567,-1.989667 -0.46567,-2.921001 0,-2.328333 0.97367,-4.021667 2.667,-4.783667 1.05833,-0.423333 2.07433,-0.550333 4.65667,-0.550333 -0.635,2.074334 -0.67734,2.286 -2.11667,7.916334 l -0.29633,1.227667 -1.524,1.608666 1.10066,0.08467 c -2.032,7.874001 -2.96333,9.017001 -7.493,9.017001 -0.67733,0 -1.18533,0 -2.24366,-0.08467 l -1.98967,2.751667 c 0.93133,0.127 1.31233,0.169333 2.07433,0.169333 1.35467,0 2.413,-0.127 3.25967,-0.423333 1.31233,-0.381 3.429,-2.074334 5.63033,-4.360334 2.24367,-2.328333 2.37067,-2.582333 3.76767,-6.985 5.24933,-0.338667 6.77333,-0.423334 9.144,-0.465667 -0.21167,0.889 -0.381,1.481667 -0.42333,1.735667 l -0.97367,3.598333 c -1.48167,5.926667 -1.48167,5.926667 -1.48167,6.477001 0,0.465666 0.42334,0.889 0.93134,0.889 0.29633,0 0.71966,-0.08467 1.18533,-0.211667 1.10067,-0.296333 1.778,-0.423333 6.39233,-1.27 l 0.762,-1.058333 c -2.20133,0.211666 -2.921,0.254 -4.02166,0.254 -0.84667,0 -1.35467,-0.423334 -1.35467,-1.143 0,-1.312334 0,-1.312334 2.70933,-11.853334 2.70934,-9.440334 2.70934,-9.440334 3.21734,-10.244668 0.635,-1.016 1.35467,-1.439333 2.54,-1.439333 0.84667,0 1.31233,0.08467 2.24367,0.423333 l 1.43933,-2.328333 c -0.762,-0.254 -1.10067,-0.296334 -1.86267,-0.296334 -0.55033,0 -0.97366,0.04233 -1.397,0.169334 -1.05833,0.338666 -3.21733,2.032 -5.03767,3.937 -1.69333,1.820333 -2.286,2.921 -3.00566,5.545667 l -1.143,4.106334 c -0.0423,0.127 -0.16934,0.592666 -0.381,1.312333 z"
         style="font-style:normal;font-variant:normal;font-weight:normal;font-stretch:normal;font-size:42.33333588px;font-family:Z003;-inkscape-font-specification:Z003;fill:#ffffff;fill-opacity:1;stroke-width:0.26458332"
         id="path829"
         inkscape:connector-curvature="0" />
      <path
         d="m 143.9834,58.618993 c -3.21733,2.201333 -4.699,3.090333 -5.24933,3.090333 -0.46567,0 -0.80434,-0.592666 -0.80434,-1.397 0,-0.973667 0.33867,-2.667 1.05834,-5.376333 0.42333,-1.608667 0.84666,-3.217334 0.889,-3.471334 0.381,-1.608667 0.67733,-2.667 0.762,-2.963334 0.127,-0.465666 0.21166,-0.889 0.21166,-1.143 0,-0.338666 -0.21166,-0.550333 -0.508,-0.550333 -0.42333,0 -3.47133,1.651 -6.56166,3.556 l -0.29634,1.143 c 1.82034,-0.931333 2.58234,-1.227666 3.09034,-1.227666 0.33866,0 0.59266,0.296333 0.59266,0.804333 0,0.592667 -0.381,2.243667 -1.18533,5.249334 -1.05833,3.979333 -1.31233,5.122333 -1.31233,6.35 0,1.185333 0.508,2.074333 1.18533,2.074333 0.635,0 1.35467,-0.381 3.51367,-1.778 3.302,-2.116666 3.302,-2.116666 4.36033,-2.836333 -0.381,1.439333 -0.59267,2.878667 -0.59267,3.640667 0,0.592666 0.29634,0.973666 0.762,0.973666 0.84667,0 4.826,-2.328333 7.747,-4.529666 l 0.29634,-1.270001 c -3.00567,1.778001 -4.40267,2.540001 -4.86834,2.540001 -0.29633,0 -0.46566,-0.296334 -0.46566,-1.016 0,-2.159001 1.524,-8.424334 3.38666,-13.843001 -0.55033,0.296333 -0.93133,0.508 -1.10066,0.592666 -0.508,0.254 -1.016,0.508 -1.56634,0.719667 -0.127,0.08467 -0.381,0.211667 -0.84666,0.465667 -0.29634,1.058333 -0.97367,3.894667 -2.07434,8.509 z"
         style="font-style:normal;font-variant:normal;font-weight:normal;font-stretch:normal;font-size:42.33333588px;font-family:Z003;-inkscape-font-specification:Z003;fill:#ffffff;fill-opacity:1;stroke-width:0.26458332"
         id="path831"
         inkscape:connector-curvature="0" />
      <path
         d="m 153.63275,64.92666 1.35467,-1.143 c 1.18533,0.465666 2.07433,0.635 2.87867,0.635 1.10066,0 1.35466,-0.127 3.97933,-1.778 1.905,-1.058334 1.905,-1.058334 2.159,-1.227667 1.143,-0.719667 1.94733,-1.608667 2.58233,-2.751667 1.35467,-2.455333 2.37067,-6.138334 2.37067,-8.636 0,-1.947334 -0.97366,-3.217334 -2.49767,-3.217334 -1.43933,0 -2.58233,0.635 -6.81566,3.640667 0.33866,-1.481667 0.33866,-1.481667 0.80433,-3.598334 0.84667,-4.191 0.93133,-4.445 1.778,-6.35 0.80433,-1.820333 1.60867,-2.370667 3.556,-2.370667 h 1.73567 l 1.73567,-2.455333 c -0.84667,-0.08467 -1.397,-0.127 -1.86267,-0.127 -1.56634,0 -2.32834,0.423333 -5.88434,3.386667 -2.87866,2.328333 -2.87866,2.328333 -4.36033,8.89 -0.80433,3.513667 -1.56633,6.773334 -2.413,10.498667 -0.762,3.344334 -0.84667,3.725334 -1.524,6.434667 z m 5.588,-12.742334 c 2.413,-1.778 3.89467,-2.54 4.86834,-2.54 0.84666,0 1.397,0.762 1.397,2.074333 0,1.693333 -0.508,4.233334 -1.22767,6.053667 -1.143,2.836334 -2.62467,4.233334 -4.48733,4.233334 -0.84667,0 -1.651,-0.211667 -2.794,-0.804334 z"
         style="font-style:normal;font-variant:normal;font-weight:normal;font-stretch:normal;font-size:42.33333588px;font-family:Z003;-inkscape-font-specification:Z003;fill:#ffffff;fill-opacity:1;stroke-width:0.26458332"
         id="path833"
         inkscape:connector-curvature="0" />
    </g>
  </g>
</svg>
